<?xml version="1.0" encoding="UTF-8"?><svg id="Capa_1" xmlns="http://www.w3.org/2000/svg" viewBox="0 0 963 793"><g><path d="M666.81,203.3c-19.36,0-37.06,7.02-50.76,18.62-3.09,2.13-5.78,4.78-7.99,7.81-3.97,5.45-6.35,12.14-6.35,19.4,0,.23,.03,.45,.04,.68,.04,2.04,.24,4.05,.64,5.98,2.37,9.46,10.9,16.47,21.09,16.47,8.39,0,15.65-4.77,19.28-11.73,1.69-1.38,2.78-3.44,2.78-5.79,0-4.14-3.36-7.5-7.5-7.5-3.12,0-5.79,1.9-6.92,4.61h-.05s.01,.06,.02,.08c-.35,.87-.56,1.81-.56,2.81,0,1.12,.26,2.18,.71,3.13-1.14,3.77-4.55,6.53-8.62,6.53s-7.47-2.7-8.63-6.44c-.54-4.44,2.04-9.11,2.48-9.87,4.74-7.61,10.44-12.32,16.42-15.07,.73-.34,1.47-.64,2.2-.92,2.02-.76,4.06-1.32,6.09-1.7,7.74-1.48,15.36-.46,21.41,1.09,1.16,1.82,2.13,3.76,2.91,5.79,0,.53,.02,.99,.02,1.26-36.33-10.51-5.4,14.01-1.96,14.51-11.57,5.49-8.31,9.58-.32,12.63-1.34,2.31-2.95,4.44-4.79,6.35-9.86,1.97-12.96,6.12-13.8,8.36-.04,.01-.07,.03-.11,.04-.55,1.32-.86,2.77-.86,4.3,0,4.39,2.56,8.16,6.25,9.97,1.15,.45,2.38,.81,3.67,1.06,.41,.04,.81,.12,1.23,.12,.06,0,.11-.02,.16-.02,1.82,.28,3.71,.41,5.62,.23,4.74-.44,4.56-2.03,2.91-3.81-2.11-2.28-6.63-4.85-6.35-5.7,2.99-1.9,6.05-3.23,9.11-4.14,19.56-5.81,39.07,6.21,39.49,6.64,36.67,26.6,5.79,54.67-10.34,66.17,29.3-11.45,50.07-39.94,50.07-73.29,0-43.46-35.23-78.68-78.68-78.68"/><path d="M306.23,203.3c19.36,0,37.06,7.02,50.76,18.62,3.09,2.13,5.78,4.78,7.99,7.81,3.97,5.45,6.34,12.14,6.34,19.4,0,.23-.03,.45-.04,.68-.04,2.04-.24,4.05-.64,5.98-2.37,9.46-10.9,16.47-21.09,16.47-8.39,0-15.65-4.77-19.28-11.73-1.69-1.38-2.78-3.44-2.78-5.79,0-4.14,3.36-7.5,7.5-7.5,3.12,0,5.79,1.9,6.92,4.61h.05s-.01,.06-.02,.08c.35,.87,.56,1.81,.56,2.81,0,1.12-.26,2.18-.71,3.13,1.14,3.77,4.54,6.53,8.62,6.53s7.47-2.7,8.63-6.44c.54-4.44-2.04-9.11-2.48-9.87-4.73-7.61-10.44-12.32-16.41-15.07-.73-.34-1.47-.64-2.21-.92-2.02-.76-4.06-1.32-6.09-1.7-7.74-1.48-15.36-.46-21.41,1.09-1.15,1.82-2.13,3.76-2.91,5.79,.01,.53-.02,.99-.02,1.26,36.33-10.51,5.4,14.01,1.96,14.51,11.57,5.49,8.31,9.58,.32,12.63,1.34,2.31,2.95,4.44,4.79,6.35,9.86,1.97,12.96,6.12,13.8,8.36,.04,.01,.07,.03,.11,.04,.55,1.32,.86,2.77,.86,4.3,0,4.39-2.56,8.16-6.25,9.97-1.15,.45-2.38,.81-3.67,1.06-.41,.04-.81,.12-1.23,.12-.06,0-.11-.02-.16-.02-1.82,.28-3.71,.41-5.62,.23-4.74-.44-4.56-2.03-2.91-3.81,2.11-2.28,6.63-4.85,6.35-5.7-2.99-1.9-6.05-3.23-9.11-4.14-19.55-5.81-39.06,6.21-39.49,6.64-36.67,26.6-5.79,54.67,10.34,66.17-29.3-11.45-50.07-39.94-50.07-73.29,0-43.46,35.23-78.68,78.69-78.68"/><path d="M384.72,328.77s3.92-18.28,3.92-23.07-6.53-12.19-13.06-17.41c-6.53-5.22-12.19,24.38,9.14,40.49"/><path d="M357.59,327.31c1.45,5.8,35.99,20.32,35.7,19.44-32.5-17.99-28.15-52.82-28.15-52.82-13.93,12.19-9,27.57-7.55,33.38"/><path d="M390.67,391.45c-.58,.58-6.09-10.74,5.8-11.32,.87-.29-16.66-18.86-17.32,8.42-1.25-.29-87.74-17.41-58.13-43.82,.29,.87-1.16-15.24-10.16-14.51,.29,.29,0-6.67,8.13-7.55-.58,.29-25.25-9.72-30.76,14.51,.29-.14-14.17-13.02-6.24-19.73,0,0,13.5-10.01,13.06-14.36,.44-1.31,1.74-10.45-3.7-8.05,0-.22-44.84,11.54-10.45,47.89-.44-1.09,6.75,9.36,25.25,21.11,0,.44-21.55-1.31-24.16-5.88-2.61-4.57-17.41,13.5-30.69-6.96,0,0-18.72,35.7,77.05,29.17,0,0,12.41-.87,16.11,6.53,.44,.87-71.39-15.89-48.76,20.9,.87-.22,59.49-45.57,125.89,25.61-.92-2.53-3.37-34.77-30.91-41.93"/><path d="M416.94,377.52c46.58-.87,65.3,20.9,65.73,21.33-6.53-26.55-36.57-30.04-37-30.04-73.14-14.37-90.12-35.7-90.12-35.7,2.17,40.92,61.82,44.4,61.39,44.4"/><path d="M444.61,381.81c-2.95,0-5.33,2.39-5.33,5.33s2.39,5.33,5.33,5.33,5.33-2.39,5.33-5.33-2.39-5.33-5.33-5.33"/><path d="M458.24,387.14c-2.71,0-4.9,2.19-4.9,4.9s2.19,4.9,4.9,4.9,4.9-2.19,4.9-4.9-2.19-4.9-4.9-4.9"/><path d="M470.94,400.83c0-2.15-1.75-3.9-3.9-3.9s-3.9,1.75-3.9,3.9,1.75,3.9,3.9,3.9,3.9-1.75,3.9-3.9"/><path d="M475.3,408.97c0-1.71-1.38-3.09-3.09-3.09s-3.09,1.38-3.09,3.09,1.38,3.09,3.09,3.09,3.09-1.38,3.09-3.09"/><path d="M476.77,415.37c-1.32,0-2.39,1.07-2.39,2.39s1.07,2.39,2.39,2.39,2.39-1.07,2.39-2.39-1.07-2.39-2.39-2.39"/><path d="M481.46,423.25c-1.05,0-1.91,.85-1.91,1.91s.85,1.91,1.91,1.91,1.91-.85,1.91-1.91-.85-1.91-1.91-1.91"/><path d="M485.83,386.58c0-.21,.01-.29,0-.37-.04-.22-.1-.43-.15-.65-1.25-4.85-3.7-9.05-6.94-12.82-4.86-5.63-10.85-9.84-17.29-13.42-4.48-2.49-9.1-4.73-13.59-7.2-3.5-1.93-6.75-4.23-9.42-7.26-3.05-3.46-4.61-7.31-3.31-11.99,1.1-3.98,4.73-6.39,8.64-5.67,1.61,.3,2.97,1.05,3.96,2.37,.9,1.2,.9,2.67,.06,3.69-.49,.6-1.1,.84-1.84,.58-.77-.27-1.12-.86-1.11-1.67,0-.16,.04-.32,.05-.47-.06-.05-.13-.1-.19-.16-.33,.31-.73,.57-.99,.94-1.6,2.29-.28,5.27,2.58,5.87,2.33,.49,4.9-.8,6.05-3.12,1.4-2.83,.96-5.62-.46-8.27-1.61-3.01-4.27-4.83-7.47-5.83-4.51-1.41-8.75-.91-12.58,2.03-2.48,1.91-3.99,4.5-5.08,7.36-2.3,6.04-1.9,11.84,1.79,17.26,2.66,3.89,6.27,6.76,10.47,8.73,5.94,2.79,12.01,5.31,18.03,7.94,4.15,1.81,8.13,3.94,11.9,6.44,6.23,4.13,11.57,9.24,16.29,15.02,.16,.2,.35,.39,.59,.67"/><path d="M399.08,241.26c.44,1.31-12.18,12.62,7.41,15.24-.44-.87,11.46,2.32,7.4,11.32,0-1.74-10.45,1.74-7.54,9.29-.29-.58-15.09,9.58,3.48,14.22-.29,.29-2.32,20.32,22.06,11.32,.87-.87,7.26-19.15,25.83-11.61-.29-.29-12.48,6.96-14.51,7.26-.87-.29-4.06,4.35-.58,5.51,.29,.58-6.39,11.61,6.38,9.58,0,.29,4.06,15.96,31.05-16.25-.58,1.16,6.68-9,1.45-17.99-.22,0,0-14.77,.36-33.13,1.19,2.71,6.24,15.87,5.22,41.67,.29,.16-.06-30.01,5.89-41.72,.35,18.39,.57,33.18,.35,33.18-5.16,9,2.01,19.16,1.43,17.99,26.66,32.21,30.68,16.54,30.68,16.25,12.61,2.03,6.02-9,6.31-9.58,3.44-1.16,.29-5.81-.57-5.51-2.01-.29-14.05-7.55-14.34-7.26,18.35-7.55,24.66,10.74,25.52,11.61,24.08,9,22.08-11.03,21.79-11.32,18.35-4.64,3.73-14.8,3.44-14.22,2.87-7.55-7.45-11.03-7.45-9.29-4.01-9,7.74-12.19,7.31-11.32,19.35-2.61,6.88-13.93,7.31-15.24,15.49-4.35,.86-14.37,0-13.06,.43-20.03-25.37-1.74-25.92-1.31-12.16-14.37-41.21,16.98-41.21,16.98-7.79,3.63-8.56-3.05-7.7-1.89,.86-5.81,22.36-15.09,22.36-15.38,17.78-12.48-2.29-18.86-3.34-18.28,9.47-26.32-8.35-25.01-14.99-24.09-1.26-6.7-8.17-11.83-16.54-11.83s-15.29,5.14-16.54,11.84c-6.62-.92-24.95-2.41-15.3,24.07-1.06-.58-21.38,5.8-3.38,18.28,0,.29,21.77,9.58,22.64,15.38,.87-1.16,.09,5.51-7.79,1.89,0,0-29.4-31.34-41.71-16.98-.56-.44-26.68-18.72-26.24,1.31-.87-1.31-15.68,8.71,0,13.06m16.22,40.29c-.1-.91-4.24-13.38,37.33-6.17,.54-.09-36.79,11.23-37.33,6.17m143.43,0c-.54,5.06-37.41-6.26-36.88-6.17,41.07-7.2,36.97,5.27,36.88,6.17m-.61-48.27s11.51,6.67-21.48,11.61c.55,.29-6.9,0-6.9,0,0,0,19.78-15.38,28.38-11.61m2.21,14.57s15.63,8.06-31.9,6.27c.75,.36-9.83-1.29-9.83-1.29,0,0,29.91-9.93,41.72-4.99m-8.7,44.65c-1.25,3.19-35.64-12.26-35.13-12.09,41.13,4.26,35.35,11.51,35.13,12.09m-27.41,18.02c-.49,.53-5.53,9.94-26.85-26.04-.39-.38,29.6,23.11,26.85,26.04m-10.09-92c-5.94,4.36-10.34,4.93-15.52,17.51-5.18,12.58,2.68-20.75,14.37-25.06,0,0,7.09,3.19,1.15,7.56m-6.04-13.61c-5.16,6.96-9.89,9.14-11.4,25.03-1.51,15.89-4.09-24.16,7.52-33.08,0,0,9.03,1.09,3.87,8.05m-37.61-8.05c11.75,8.92,9.14,48.97,7.62,33.08-1.52-15.89-6.31-18.07-11.54-25.03-5.22-6.96,3.92-8.05,3.92-8.05m-10.03,21.67c-6.01-4.36,1.17-7.56,1.17-7.56,11.83,4.32,19.79,37.64,14.55,25.06-5.24-12.57-9.7-13.14-15.71-17.51m16.97,65.96c-21.59,35.98-26.69,26.57-27.19,26.04-2.78-2.93,27.58-26.43,27.19-26.04m-54.94,8.02c-.23-.57-6.08-7.83,35.56-12.09,.52-.17-34.3,15.28-35.56,12.09m-6.56-59.22c8.71-3.77,28.73,11.61,28.73,11.61,0,0-7.54,.29-6.99,0-33.4-4.93-21.75-11.61-21.75-11.61m-2.24,14.57c11.96-4.95,42.24,4.99,42.24,4.99,0,0-10.71,1.65-9.95,1.29-48.11,1.79-32.29-6.27-32.29-6.27"/><path d="M461.33,337.74c-2.44,.94,4.75,.7,5.56-3.11,.05,.05,.1,.1,.15,.15,1.85,1.73,3.9,3.24,6.01,4.68,.02,.02,.06,.02,.1,.03-.71-.86-1.42-1.7-2.1-2.56-2.35-2.98-3.82-6.3-4.51-9.92-.4-2.13-.32-4.24,.64-6.25,.75-1.58,1.89-2.84,3.64-3.52,2.33-.9,5.5-.15,6.97,1.63,.48,.59,.75,1.25,.69,2-.08,.94-.93,1.47-1.9,1.19-.49-.14-.74-.32-1.41-1.01-.22,1.48,.95,2.89,2.57,3.14,2.03,.32,3.73-.97,3.86-2.94,.18-2.71-1.16-4.7-3.51-6.15-2.32-1.44-4.92-1.91-7.67-1.65-3.13,.29-5.64,1.62-7.42,4.04-1.29,1.75-1.73,3.73-1.66,5.83,.09,2.76,.92,5.2,2.31,7.41l-.03-.03s.24,6.07-2.29,7.05"/><path d="M394.27,325.46c4.19,2.59,7.94,.86,8.52-2.77-1.88,.45-4.59,2.04-6.35,1.32-3.51-1.45-4.09-4.98-2.89-8.54,1.33-3.94,5.16-5.06,9.78-2.78,5.56,2.75,8.38,7.82,10.68,13.23,3.1,7.32,5.73,14.88,9.29,21.96,3.31,6.58,8.88,10.7,16.63,11.05-7.4-2.09-12.21-6.99-14.79-14.06-1.63-4.48-2.76-9.13-4.23-13.67-1.33-4.13-2.34-8.45-4.31-12.25-3.61-6.94-9.18-11.57-17.5-11.63-4.26-.03-7.76,2.91-8.83,7.03-1.11,4.26,.59,9.01,4,11.12"/><path d="M597.97,288.28c-6.45,5.22-12.9,12.62-12.9,17.41s3.87,23.07,3.87,23.07c21.07-16.11,15.48-45.71,9.03-40.49"/><path d="M580.48,346.76c-.29,.87,33.83-13.64,35.26-19.44,1.43-5.81,6.31-21.19-7.46-33.38,0,0,4.3,34.83-27.81,52.82"/><path d="M690.43,358.15c-2.58,4.57-23.87,6.31-23.87,5.88,18.28-11.76,25.37-22.2,24.94-21.11,33.97-36.35-10.32-48.1-10.32-47.89-5.38-2.39-4.09,6.75-3.66,8.05-.43,4.35,12.9,14.37,12.9,14.37,7.84,6.72-6.45,19.59-6.16,19.73-5.45-24.23-29.82-14.22-30.39-14.51,8.03,.87,7.74,7.83,8.03,7.55-8.89-.73-10.32,15.38-10.04,14.51,29.24,26.41-56.19,43.53-57.42,43.82-.66-27.28-17.98-8.71-17.11-8.41,11.75,.58,6.31,11.9,5.73,11.32-27.21,7.16-29.63,39.41-30.54,41.93,65.6-71.18,123.5-25.83,124.36-25.61,22.36-36.79-48.6-20.03-48.17-20.9,3.66-7.4,15.91-6.53,15.91-6.53,94.61,6.53,76.12-29.17,76.12-29.17-13.12,20.46-27.74,2.39-30.32,6.96"/><path d="M557.12,377.52c-.43,0,58.5-3.48,60.64-44.4,0,0-16.78,21.33-89.03,35.7-.43,0-30.1,3.48-36.55,30.04,.43-.43,18.92-22.2,64.94-21.33"/><path d="M529.78,381.81c-2.91,0-5.27,2.39-5.27,5.33s2.36,5.33,5.27,5.33,5.27-2.39,5.27-5.33-2.36-5.33-5.27-5.33"/><path d="M516.31,387.14c-2.67,0-4.84,2.19-4.84,4.9s2.16,4.9,4.84,4.9,4.84-2.19,4.84-4.9-2.16-4.9-4.84-4.9"/><path d="M507.62,396.93c-2.13,0-3.85,1.75-3.85,3.9s1.73,3.9,3.85,3.9,3.85-1.75,3.85-3.9-1.73-3.9-3.85-3.9"/><path d="M502.51,405.89c-1.68,0-3.05,1.38-3.05,3.09s1.37,3.09,3.05,3.09,3.05-1.38,3.05-3.09-1.37-3.09-3.05-3.09"/><path d="M498.01,415.37c-1.3,0-2.36,1.07-2.36,2.39s1.06,2.39,2.36,2.39,2.36-1.07,2.36-2.39-1.06-2.39-2.36-2.39"/><path d="M493.38,423.25c-1.04,0-1.89,.85-1.89,1.91s.84,1.91,1.89,1.91,1.88-.85,1.88-1.91-.84-1.91-1.88-1.91"/><path d="M489.65,385.9c4.66-5.78,9.93-10.89,16.09-15.02,3.73-2.5,7.66-4.63,11.76-6.44,5.94-2.63,11.94-5.14,17.81-7.94,4.15-1.98,7.72-4.84,10.34-8.73,3.65-5.42,4.04-11.22,1.77-17.26-1.07-2.86-2.56-5.45-5.01-7.36-3.78-2.94-7.97-3.43-12.42-2.03-3.16,1-5.79,2.83-7.38,5.83-1.4,2.64-1.84,5.44-.45,8.27,1.14,2.32,3.67,3.62,5.98,3.13,2.82-.61,4.12-3.59,2.54-5.87-.25-.36-.64-.63-.97-.94-.06,.05-.12,.1-.19,.16,.02,.16,.05,.32,.05,.47,.01,.81-.33,1.4-1.09,1.67-.73,.26-1.34,.02-1.82-.58-.83-1.02-.83-2.49,.06-3.69,.98-1.32,2.32-2.08,3.91-2.37,3.86-.72,7.45,1.69,8.54,5.67,1.28,4.68-.27,8.54-3.28,11.99-2.64,3.03-5.85,5.34-9.31,7.26-4.44,2.47-9,4.71-13.42,7.2-6.36,3.58-12.28,7.79-17.08,13.42-3.21,3.76-5.62,7.97-6.86,12.82-.06,.21-.11,.43-.15,.65-.01,.07,0,.16,0,.37,.24-.28,.42-.47,.59-.67"/><path d="M511.61,317.48c-1.76-2.42-4.24-3.75-7.33-4.04-2.71-.25-5.29,.22-7.57,1.65-2.31,1.45-3.64,3.44-3.46,6.15,.13,1.97,1.81,3.26,3.81,2.94,1.6-.25,2.76-1.66,2.54-3.14-.66,.69-.91,.87-1.39,1.01-.96,.29-1.8-.24-1.88-1.19-.06-.75,.21-1.41,.68-2,1.45-1.79,4.58-2.54,6.88-1.63,1.74,.68,2.86,1.94,3.6,3.52,.95,2.01,1.03,4.12,.63,6.25-.68,3.62-2.14,6.95-4.46,9.92-.67,.86-1.38,1.7-2.08,2.56,.04-.01,.08-.01,.1-.03,2.08-1.44,4.11-2.95,5.94-4.68,.05-.05,.1-.1,.15-.15,.8,3.81,7.9,4.06,5.49,3.11-2.49-.98-2.26-7.05-2.26-7.05l-.03,.03c1.37-2.21,2.19-4.65,2.28-7.41,.07-2.1-.37-4.08-1.64-5.83"/><path d="M487.46,375.34h0c.07-.16,3.44-7.62,3.99-8.26,3.14-6.75,12.34-9.36,16.17-15.02,3.83-5.66-5.12-2.39-5.11-2.39,4.52-10.01-6.89-8.71-6.89-8.92-.21-5.2-8.09-5.22-8.16-5.22h0c-.07,0-8.05,.02-8.27,5.22,0,.22-11.55-1.09-6.97,8.92,0,0-9.05-3.26-5.17,2.39,3.87,5.66,13.19,8.27,16.37,15.02,.56,.65,3.97,8.11,4.04,8.26h0Z"/><path d="M574.73,307.31c-8.21,.05-13.72,4.69-17.29,11.63-1.95,3.8-2.95,8.12-4.26,12.25-1.45,4.54-2.56,9.2-4.17,13.67-2.55,7.07-7.3,11.97-14.61,14.06,7.65-.35,13.15-4.46,16.43-11.05,3.52-7.08,6.11-14.64,9.18-21.96,2.26-5.41,5.05-10.48,10.55-13.23,4.56-2.28,8.35-1.16,9.66,2.78,1.19,3.56,.61,7.09-2.85,8.54-1.74,.73-4.42-.87-6.27-1.32,.57,3.63,4.28,5.36,8.41,2.77,3.36-2.11,5.05-6.85,3.95-11.12-1.06-4.12-4.52-7.05-8.73-7.03"/></g><g><path d="M72.85,488.24c0-10.72,0-12.11-.16-14.21-.16-2.02-.78-3.26-2.95-3.73-.54-.08-1.79-.15-2.41-.15-.16,0-.47-.16-.47-.39,0-.47,.39-.62,1.09-.62,3.34,0,7.61,.23,8.08,.23,1.63,0,5.59-.23,8.78-.23,8.54,0,11.65,2.79,12.74,3.73,1.47,1.32,3.41,4.35,3.41,8.7,0,8.62-7.14,14.91-16.85,14.91-.31,0-1.09,0-1.47-.08-.31,0-.7-.16-.7-.47,0-.62,.47-.62,1.94-.62,6.13,0,11.26-4.19,11.26-11.03,0-1.01,.23-5.67-3.34-9.4-3.81-4.04-8.23-3.65-9.63-3.65-1.01,0-2.17,.16-2.64,.39-.39,.16-.47,.7-.47,1.24v26.87c0,5.98,0,11.57,.31,14.37,.23,1.86,.62,3.41,2.72,3.65,.93,.16,2.49,.31,3.11,.31,.31,0,.47,.16,.47,.39,0,.39-.31,.62-1.09,.62-4.04,0-8.39-.23-8.78-.23-.08,0-4.66,.23-6.83,.23-.7,0-1.09-.16-1.09-.62,0-.23,.16-.39,.54-.39,.54,0,1.4-.16,2.02-.31,1.4-.23,1.79-1.79,2.02-3.65,.39-2.8,.39-8.39,.39-14.21v-11.65Z"/><path d="M133.03,500.12c-.39,0-.62,.23-.78,.62l-3.42,9.7c-.78,2.18-1.32,4.27-1.32,5.52,0,1.4,.85,2.02,2.56,2.02h.54c.7,0,.93,.23,.93,.55,0,.39-.62,.54-1.16,.54-1.71,0-5.28-.23-6.14-.23-.78,0-4.19,.23-7.46,.23-.85,0-1.24-.16-1.24-.54,0-.31,.31-.55,.93-.55,.39,0,1.09,0,1.55-.08,3.34-.31,4.66-2.87,5.98-6.13l15.53-40.93c.85-2.25,1.09-2.64,1.63-2.64,.39,0,.7,.31,1.55,2.49,1.09,2.56,11.65,29.67,15.76,39.37,2.56,6.14,4.81,7.14,5.9,7.53,1.01,.39,2.1,.39,2.64,.39s.93,.16,.93,.55-.31,.54-1.16,.54c-.78,0-6.6,0-11.81-.16-1.47-.08-1.94-.16-1.94-.54,0-.23,.23-.47,.54-.55,.31-.16,.78-.54,.31-1.71l-6.13-15.61c-.16-.23-.31-.39-.62-.39h-14.13Zm13.2-2.72c.31,0,.31-.23,.23-.47l-6.13-17.16c-.39-1.09-.47-1.09-.85,0l-5.83,17.16c-.16,.31,0,.47,.16,.47h12.43Z"/><path d="M189.79,518.21c-1.01-.47-1.01-.78-1.01-2.64,0-3.57,.23-6.21,.31-7.3,.08-.7,.23-1.09,.62-1.09s.54,.23,.54,.78c0,.47,0,1.4,.23,2.33,1.01,5.05,5.59,6.99,10.1,6.99,6.45,0,9.55-4.43,9.55-8.31,0-4.43-2.02-7.14-7.69-11.73l-3.11-2.41c-7.45-5.98-9.01-10.1-9.01-14.68,0-7.15,5.67-11.96,14.37-11.96,2.72,0,4.58,.24,6.29,.62,1.47,.31,2.1,.39,2.64,.39s.7,.16,.7,.47-.31,3.03-.31,7.53c0,1.16-.16,1.63-.54,1.63s-.47-.31-.54-.86c-.08-.7-.23-2.33-.93-3.65-.39-.7-2.18-3.65-8.7-3.65-4.66,0-8.16,2.8-8.16,7.45,0,3.65,1.86,5.9,8.31,10.8l1.79,1.4c8.07,6.21,10.17,10.33,10.17,15.84,0,2.8-1.17,7.77-5.9,11.03-3.03,1.94-6.76,2.72-10.48,2.72-3.26,0-6.29-.39-9.24-1.71"/><path d="M246.78,488.24c0-10.17,0-12.04-.16-14.13-.16-2.18-.7-3.26-2.95-3.73-.47-.08-1.24-.16-1.87-.16-.54,0-1.01-.23-1.01-.46,0-.47,.39-.62,1.16-.62,1.56,0,3.65,.16,8,.23,.39,0,14.21,0,15.76-.08,1.56-.08,2.41-.16,3.03-.39,.47-.16,.54-.23,.86-.23,.16,0,.31,.16,.31,.54,0,.47-.47,1.55-.62,3.49-.08,1.32-.16,2.56-.23,4.04,0,.7-.16,1.16-.54,1.16s-.54-.31-.54-.86c-.08-1.16-.31-1.94-.55-2.48-.47-1.55-1.16-2.1-5.05-2.33-1.01-.08-8.7-.16-8.85-.16-.23,0-.39,.16-.39,.62v17.63c0,.47,.08,.78,.47,.78,.93,0,8.85-.08,10.48-.23,1.79-.08,2.95-.31,3.57-1.16,.31-.47,.54-.62,.85-.62,.16,0,.31,.08,.31,.47s-.31,1.86-.54,4.12c-.23,2.17-.23,3.73-.31,4.74-.08,.62-.24,.85-.55,.85-.39,0-.47-.47-.47-1.01,0-.47-.08-1.24-.23-1.87-.31-1.01-.78-2.1-3.73-2.33-1.79-.16-8.08-.31-9.32-.31-.47,0-.54,.23-.54,.54v5.67c0,2.41-.08,9.24,0,10.56,.16,2.87,.54,4.35,2.18,5.05,1.16,.55,3.03,.7,5.67,.7,1.47,0,3.96,.08,5.9-.47,2.33-.7,2.87-2.25,3.49-5.13,.16-.78,.39-1.09,.7-1.09,.47,0,.47,.7,.47,1.16,0,.54-.62,5.44-.86,6.76-.31,1.56-.85,1.71-3.42,1.71-5.13,0-7.3-.16-10.02-.16-2.72-.08-6.29-.23-9.16-.23-1.79,0-3.26,.23-5.13,.23-.7,0-1.09-.16-1.09-.54,0-.31,.31-.54,.7-.54,.47,0,1.01-.08,1.55-.23,1.4-.31,2.33-1.32,2.48-6.13,.08-2.64,.16-5.82,.16-11.73v-11.65Z"/><path d="M296.63,493.99c0-10.33,8-25.78,27.18-25.78,15.38,0,27.1,9.16,27.1,24.77s-10.95,26.95-27.49,26.95c-19.03,0-26.79-14.13-26.79-25.94m46.98,.93c0-15.61-9.63-24.31-20.27-24.31s-19.49,6.68-19.49,21.36,8.47,25.32,21.51,25.32c5.2,0,18.25-2.64,18.25-22.37"/><path d="M428.34,500.12c-.39,0-.62,.23-.78,.62l-3.41,9.7c-.78,2.18-1.32,4.27-1.32,5.52,0,1.4,.85,2.02,2.56,2.02h.54c.7,0,.93,.23,.93,.55,0,.39-.62,.54-1.16,.54-1.71,0-5.28-.23-6.14-.23-.78,0-4.19,.23-7.46,.23-.85,0-1.24-.16-1.24-.54,0-.31,.31-.55,.93-.55,.39,0,1.09,0,1.55-.08,3.34-.31,4.66-2.87,5.98-6.13l15.53-40.93c.85-2.25,1.09-2.64,1.63-2.64,.39,0,.7,.31,1.55,2.49,1.09,2.56,11.65,29.67,15.76,39.37,2.56,6.14,4.81,7.14,5.9,7.53,1.01,.39,2.1,.39,2.64,.39s.93,.16,.93,.55-.31,.54-1.16,.54c-.78,0-6.6,0-11.81-.16-1.47-.08-1.94-.16-1.94-.54,0-.23,.23-.47,.54-.55,.31-.16,.78-.54,.31-1.71l-6.13-15.61c-.16-.23-.31-.39-.62-.39h-14.13Zm13.2-2.72c.31,0,.31-.23,.23-.47l-6.13-17.16c-.39-1.09-.47-1.09-.85,0l-5.83,17.16c-.16,.31,0,.47,.16,.47h12.43Z"/><path d="M488.36,488.24c0-10.25,0-12.11-.16-14.21-.16-2.1-.7-3.26-3.11-3.73-.46-.08-1.24-.16-1.86-.16-.54,0-.86-.16-.86-.47s.23-.54,.93-.54c3.34,0,8.08,.23,8.23,.23,.7,0,5.98-.23,8.15-.23,4.35,0,9.09,.39,12.73,2.95,1.48,1.09,4.66,4.19,4.66,9.47,0,4.27-2.1,9.71-8.23,14.68,5.67,6.99,10.33,12.74,14.29,16.85,3.73,3.81,6.06,4.43,8.23,4.74,.54,.08,2.17,.16,2.41,.16,.62,0,.86,.23,.86,.55,0,.39-.31,.54-1.4,.54h-5.44c-3.65,0-5.36-.23-7.07-.93-3.26-1.4-5.59-4.89-9.63-10.1-3.03-3.73-6.14-7.92-7.45-9.55-.31-.31-.47-.47-.93-.47l-8-.08c-.31,0-.39,.08-.39,.39v1.09c0,6.21,0,11.88,.39,14.68,.23,1.86,.47,3.42,3.03,3.73,.78,.08,1.63,.16,2.25,.16,.7,0,1.01,.23,1.01,.47,0,.39-.31,.62-1.08,.62-4.04,0-8.39-.23-8.7-.23-1.24,0-4.66,.23-6.76,.23-.78,0-1.09-.16-1.09-.62,0-.23,.47-.47,.93-.47,.55,0,1.09,0,1.71-.16,1.32-.23,1.79-1.09,2.02-2.95,.39-2.8,.31-9.16,.31-14.99v-11.65Zm5.98,5.52c0,.39,.08,.78,.39,.93,1.01,.54,4.12,1.01,6.91,1.01,1.63,0,3.57-.08,5.2-1.16,2.33-1.48,3.88-4.89,3.88-9.86,0-8.47-4.5-13.13-11.41-13.13-1.94,0-3.57,.16-4.5,.39-.23,.08-.47,.31-.47,.7v21.12Z"/><path d="M561.19,500.12c-.39,0-.62,.23-.78,.62l-3.42,9.7c-.78,2.18-1.32,4.27-1.32,5.52,0,1.4,.85,2.02,2.56,2.02h.54c.7,0,.93,.23,.93,.55,0,.39-.62,.54-1.16,.54-1.71,0-5.28-.23-6.13-.23-.78,0-4.19,.23-7.46,.23-.86,0-1.24-.16-1.24-.54,0-.31,.31-.55,.93-.55,.39,0,1.09,0,1.55-.08,3.34-.31,4.66-2.87,5.98-6.13l15.53-40.93c.85-2.25,1.09-2.64,1.63-2.64,.39,0,.7,.31,1.56,2.49,1.09,2.56,11.65,29.67,15.76,39.37,2.56,6.14,4.82,7.14,5.9,7.53,1.01,.39,2.1,.39,2.64,.39s.93,.16,.93,.55-.31,.54-1.16,.54c-.78,0-6.6,0-11.81-.16-1.48-.08-1.94-.16-1.94-.54,0-.23,.23-.47,.54-.55,.31-.16,.78-.54,.31-1.71l-6.13-15.61c-.16-.23-.31-.39-.62-.39h-14.13Zm13.2-2.72c.31,0,.31-.23,.23-.47l-6.13-17.16c-.39-1.09-.47-1.09-.85,0l-5.83,17.16c-.15,.31,0,.47,.16,.47h12.43Z"/><path d="M619.04,471.39c0-2.41,.23-3.18,.85-3.18,.55,0,1.86,1.56,2.41,2.1,.7,.78,11.49,11.81,22.37,22.91,6.06,5.9,13.82,13.9,15.84,15.77l-.86-32.31c-.07-4.2-.54-5.59-2.64-6.14-1.32-.23-2.49-.31-3.03-.31-.78,0-.93-.31-.93-.62,0-.39,.62-.47,1.4-.47,3.34,0,6.6,.23,7.3,.23,.78,0,3.18-.23,6.22-.23,.85,0,1.09,.08,1.09,.47,0,.31-.23,.54-.7,.62-.47,.08-1.09,.08-1.94,.23-1.79,.39-2.33,1.16-2.33,5.82l-.16,38.98c0,3.88-.15,4.27-.7,4.27s-1.32-.54-5.12-4.12c-.31-.16-11.11-10.87-17.86-17.47-8.08-8.39-15.84-16.47-17.79-18.48l1.01,30.37c.16,5.36,.62,7.38,2.56,7.84,1.24,.31,2.56,.31,3.18,.31s.93,.23,.93,.55c0,.39-.39,.54-1.24,.54-4.19,0-6.99-.23-7.53-.23s-3.41,.23-6.76,.23c-.7,0-1.17-.08-1.17-.54,0-.31,.31-.55,1.09-.55,.54,0,1.4,0,2.41-.31,1.71-.54,2.1-2.64,2.1-8.31,0-37.04,.08-25.08,0-37.98"/><path d="M706.86,503.07c0,11.18,.08,15.53-2.1,20.5-1.4,3.34-4.5,6.44-10.56,10.48-.86,.47-2.02,1.32-2.72,1.63-.07,.08-.23,.08-.46,.08-.16,0-.55-.08-.55-.39,0-.47,.47-.62,1.01-1.01,.78-.39,1.71-1.17,2.18-1.63,4.66-4.43,6.91-7.77,6.91-25.55v-18.95c0-10.25,0-12.04-.16-14.13-.15-2.1-.85-3.18-3.03-3.73-.47-.08-1.71-.16-2.33-.16-.23,0-.54-.23-.54-.47,0-.47,.39-.62,1.16-.62,3.26,0,7.77,.23,8,.23,.31,0,4.89-.23,7.07-.23,.78,0,1.09,.16,1.09,.62,0,.23-.31,.47-.47,.47-.46,0-.93,.08-1.78,.16-1.79,.39-2.41,1.55-2.56,3.81-.16,2.1-.16,3.8-.16,14.05v14.83Z"/><path d="M747.86,497.48c0,9.47,1.79,13.51,4.73,16.15,3.34,2.95,7.07,3.57,10.25,3.57,4.04,0,7.69-1.09,10.64-4.5,3.11-3.57,3.81-9.47,3.81-16.23v-8.24c0-10.17,0-11.96-.16-14.05-.15-2.25-.39-3.42-2.87-3.81-.54-.08-1.47-.16-2.17-.16-.47,0-.78-.23-.78-.47,0-.47,.39-.62,1.09-.62,3.34,0,7.22,.23,7.53,.23,.39,0,3.73-.23,5.9-.23,.78,0,1.09,.16,1.09,.54,0,.31-.31,.54-.78,.54s-.62,0-1.4,.08c-2.18,.23-2.49,1.63-2.64,3.89-.07,2.1-.07,3.88-.07,14.05v6.91c0,6.99-.78,15.38-6.29,20.12-5.05,4.27-10.02,4.66-14.21,4.66-2.18,0-9.47,0-14.52-4.66-3.34-3.11-5.75-7.77-5.75-17.4v-9.63c0-10.25,0-12.04-.23-14.13-.08-2.1-.47-3.42-2.87-3.73-.47-.08-1.4-.16-2.02-.16-.55,0-.86-.23-.86-.47,0-.47,.31-.62,1.17-.62,3.34,0,7.53,.23,8.07,.23,.62,0,5.21-.23,7.3-.23,.85,0,1.09,.16,1.09,.54s-.55,.54-.93,.54c-.46,0-1.09,.08-1.71,.16-1.87,.23-2.18,1.55-2.33,3.73-.08,2.1-.08,3.88-.08,14.13v9.24Z"/><path d="M817.35,488.24c0-10.17,0-12.04-.15-14.13-.16-2.18-.7-3.26-2.95-3.73-.47-.08-1.24-.16-1.86-.16-.54,0-1.01-.23-1.01-.46,0-.47,.39-.62,1.17-.62,1.55,0,3.65,.16,8,.23,.39,0,14.21,0,15.77-.08,1.56-.08,2.41-.16,3.03-.39,.47-.16,.55-.23,.86-.23,.16,0,.31,.16,.31,.54,0,.47-.47,1.55-.62,3.49-.08,1.32-.16,2.56-.23,4.04,0,.7-.16,1.16-.55,1.16s-.54-.31-.54-.86c-.08-1.16-.31-1.94-.55-2.48-.47-1.55-1.17-2.1-5.05-2.33-1.01-.08-8.7-.16-8.85-.16-.23,0-.39,.16-.39,.62v17.63c0,.47,.08,.78,.47,.78,.93,0,8.85-.08,10.49-.23,1.79-.08,2.95-.31,3.57-1.16,.31-.47,.55-.62,.85-.62,.16,0,.31,.08,.31,.47s-.31,1.86-.54,4.12c-.23,2.17-.23,3.73-.31,4.74-.08,.62-.24,.85-.55,.85-.39,0-.47-.47-.47-1.01,0-.47-.07-1.24-.23-1.87-.31-1.01-.78-2.1-3.73-2.33-1.79-.16-8.08-.31-9.32-.31-.47,0-.55,.23-.55,.54v5.67c0,2.41-.07,9.24,0,10.56,.16,2.87,.55,4.35,2.18,5.05,1.17,.55,3.03,.7,5.67,.7,1.48,0,3.96,.08,5.9-.47,2.33-.7,2.87-2.25,3.49-5.13,.15-.78,.39-1.09,.7-1.09,.47,0,.47,.7,.47,1.16,0,.54-.63,5.44-.86,6.76-.31,1.56-.85,1.71-3.41,1.71-5.13,0-7.3-.16-10.02-.16-2.72-.08-6.29-.23-9.16-.23-1.79,0-3.26,.23-5.13,.23-.7,0-1.09-.16-1.09-.54,0-.31,.31-.54,.7-.54,.47,0,1.01-.08,1.56-.23,1.4-.31,2.33-1.32,2.48-6.13,.08-2.64,.15-5.82,.15-11.73v-11.65Z"/><path d="M894.38,515.96c6.99,0,9.7-.7,10.95-3.18,.78-1.4,.93-2.49,1.16-3.65,.15-.62,.31-1.09,.62-1.09,.46,0,.54,.39,.54,1.16,0,2.18-.93,6.45-1.4,8.08-.54,1.79-.62,1.86-2.33,1.86-11.41,0-22.44-.31-34.64-.31-.85,0-1.24-.08-1.24-.54,0-.39,.15-.7,.93-1.86,10.18-14.99,20.12-29.28,29.51-44.35h-14.21c-4.19,0-7.92,0-10.33,.85-2.41,.86-3.03,3.96-3.41,5.83-.24,1.01-.47,1.24-.78,1.24s-.39-.39-.39-.93c0-.85,1.01-7.07,1.32-9.09,.16-1.01,.31-1.32,.78-1.32,.7,0,1.09,.39,3.11,.47,7.38,.23,10.8,.23,11.73,.23h18.95c1.01,0,1.55,0,1.55,.47,0,.31-.16,.7-.55,1.24-10.25,15.45-19.57,29.82-29.9,44.89h18.02Z"/></g></svg>